<svg xmlns="http://www.w3.org/2000/svg" class="svg-icon" style="width:1em;height:1em;vertical-align:middle;fill:currentColor;overflow:hidden" viewBox="0 0 1024 1024"><path d="M469.333 438.08V324.757A192 192 0 1 0 704 512c0-39.125-11.67-76.373-33.216-107.968a42.667 42.667 0 1 1 70.528-48.064A276.203 276.203 0 0 1 789.333 512c0 153.173-124.16 277.333-277.333 277.333S234.667 665.173 234.667 512c0-138.667 101.76-253.547 234.666-274.07V130.348C277.333 151.573 128 314.347 128 512c0 212.075 171.925 384 384 384s384-171.925 384-384c0-87.36-29.205-170.133-82.09-237.333a42.667 42.667 0 1 1 67.05-52.779A467.435 467.435 0 0 1 981.333 512c0 259.2-210.133 469.333-469.333 469.333S42.667 771.2 42.667 512 252.8 42.667 512 42.667c11.776 0 22.443 4.778 30.165 12.501 7.723 7.723 12.502 18.39 12.502 30.165V438.08a85.333 85.333 0 1 1-85.334 0z"/></svg>